<?xml version="1.0" encoding="utf-8"?>
<!-- Generator: Adobe Illustrator 24.1.1, SVG Export Plug-In . SVG Version: 6.00 Build 0)  -->
<svg version="1.1" id="Ñëîé_1" xmlns="http://www.w3.org/2000/svg" xmlns:xlink="http://www.w3.org/1999/xlink" x="0px" y="0px"
	 viewBox="0 0 1200 1200" style="enable-background:new 0 0 1200 1200;" xml:space="preserve">
<style type="text/css">
	.st0{fill:#FFFFFF;}
	.st1{fill:#8F1A4C;}
</style>
<circle class="st0" cx="600" cy="600" r="548.53"/>
<g>
	<path class="st1" d="M600.05,924.13c-32.28,1.16-64.53,0.4-96.35-5.39c-77.72-14.13-141.07-52.19-188.77-115.49
		c-22.7-30.13-40.76-62.7-50.39-99.5c-6.08-23.23-8.15-46.78-4.59-70.57c5.72-38.24,40.68-70.58,79.55-74.7
		c9.4-1,16.89,0.76,24.54,6.79c48.31,38.07,113.42,38.53,162.26,0.31c9.29-7.27,18.53-9.15,29.02-6.39
		c9.45,2.49,19.04,5.27,27.73,9.61c11.58,5.77,22.14,6.29,33.48-0.21c11.71-6.71,24.64-9.89,38.12-10.7
		c5.66-0.34,10.41,1.46,14.89,5.06c28.28,22.77,60.41,33.5,96.86,30.41c26.42-2.24,49.61-12.6,70.15-28.81
		c6.8-5.36,13.52-6.98,21.88-6.23c37.59,3.36,73.17,33.72,80.29,69.81c5.33,27.03,3.8,54.26-5.09,80.09
		c-40.59,117.92-121.45,189.97-245.24,211.62C659.21,924.94,629.62,925.17,600.05,924.13z M601.84,670.36
		c-6.65-7.47-12.06-15.54-19.3-21.31c-25.41-20.28-54.22-23.27-83.32-10.54c-29.61,12.95-43.24,38.87-46.26,69.79
		c-3.15,32.24,9.98,59.58,30.35,83.65c31.61,37.35,70.85,65.11,113.11,88.98c3.91,2.21,7.3,1.62,10.79-0.63
		c17.82-11.49,36.11-22.31,53.37-34.58c26.22-18.64,49.9-40.14,68.34-66.85c16.66-24.12,24.75-50.17,19.36-79.8
		c-6.73-37.03-32.35-63.21-68.24-66.94c-26.65-2.77-50.64,3.83-68.59,25.45C607.92,661.82,604.79,666.41,601.84,670.36z"/>
	<path class="st1" d="M869.24,514.84c-23.11-0.01-43.17-5.14-62.33-13.92c-3.25-1.49-5.42-1.37-8.32,0.72
		c-9.84,7.07-20.81,11.93-32.74,13.93c-16.83,2.82-31.47-3.72-45.3-12.28c-3.8-2.35-6.37-2.89-10.74-0.69
		c-25.6,12.92-52.48,19.25-81.13,12.87c-6.31-1.41-12.5-3.99-18.3-6.93c-7.68-3.89-7.83-8.24-0.89-13.27
		c24.14-17.48,41.19-40.06,48.39-69.16c2.66-10.77,3.15-22.08,4.48-33.17c1.75-14.55,2.93-29.17,5.11-43.65
		c3.9-25.95,19.55-43.26,42.67-53.83c41.49-18.97,80.61-14.42,116.83,13.53c13.55,10.46,19.69,24.97,21.67,41.42
		c2.07,17.22,4,34.48,5.39,51.76c3.13,39.01,21.05,69.53,52.15,92.73c0.93,0.69,1.92,1.31,2.8,2.06c4.74,4.07,4.22,7.99-1.54,10.44
		C894.64,512.87,881.2,515.05,869.24,514.84z"/>
	<path class="st1" d="M442.61,275.38c18.03,0,35.33,3.37,52.01,10.04c28.4,11.37,42.36,34.65,38.65,65.02
		c-1.4,11.47-3.52,22.86-5.37,34.27c-0.68,4.21-0.2,6.91,5.17,7.37c5.94,0.51,8.93,5.35,8.64,10.59
		c-0.61,11.11-1.64,22.3-3.87,33.17c-0.91,4.43-4.8,8.79-8.39,12c-6.25,5.58-10.14,11.82-12.76,19.98
		c-9.92,30.95-31.24,50.8-62.94,57.69c-21.22,4.61-39.32-5.01-55.35-17.99c-14.72-11.92-23.46-27.95-28.38-46.05
		c-1.35-4.95-3.63-8.63-8.1-11.33c-6.63-4.01-10.57-10.39-11.83-17.81c-1.54-9.09-2.49-18.33-2.86-27.54
		c-0.34-8.48,2.92-11.39,11.21-13.22c1.69-0.37,3.67-2.95,4.07-4.82c0.53-2.51-0.43-5.31-0.63-8c-1.02-14.39-2.43-28.78-2.8-43.19
		c-0.14-5.61,1.25-11.63,3.48-16.81c1.68-3.91,5.24-7.75,8.96-9.91c6.98-4.06,13.06-8.52,17.36-15.59
		c6.77-11.12,18.17-14.36,30.09-15.92C426.81,276.31,434.73,276,442.61,275.38z"/>
</g>
</svg>
