<svg xmlns="http://www.w3.org/2000/svg" width="500" height="500" viewBox="0 0 500 500">
  <defs>
    <style>
      .cls-1 {
        fill: #fff;
        fill-rule: evenodd;
      }
    </style>
  </defs>
  <path class="cls-1" d="M448.656,100.279a120.26,120.26,0,0,0-169.9,0l-29.193,29.156-22.556-23.842-5.9-5.886c-46.868-46.8-123.085-46.8-169.925-.027a119.981,119.981,0,0,0,.025,169.678l60.46,60.367c0.722,0.72,1.467,1.4,2.2,2.091l61.492,61.214,7.335,7.3q5.172,4.77,10.244,8.91c43.2,35.149,81.218,35.1,121.787-5.4l133.921-133.91A119.83,119.83,0,0,0,448.656,100.279ZM412.415,233.743L279.085,367.062c-10.046,10.03-21.927,20.5-35.487,18.24-12.635-2.107-33.555-29.576-33.555-29.576A100.867,100.867,0,0,0,254.931,329.7L381.724,203.093a25.607,25.607,0,0,0-36.242-36.186L225.86,286.354a60.266,60.266,0,0,1-85.115.031L87.424,233.143a68.836,68.836,0,0,1,97.421-97.277l5.923,5.913,23.219,23.186-19.379,19.353a15.053,15.053,0,0,1-21.268,0l-18.51-18.479a25.605,25.605,0,1,0-36.239,36.184L147.812,231.2a51.191,51.191,0,0,0,72.323,0L315,136.465A68.836,68.836,0,1,1,412.415,233.743Z"/>
</svg>
